STARTFONT 2.1
FONT -FontForge-Raize-Regular-R-Normal--14-130-75-75-M-80-ISO8859-1
SIZE 13 75 75
FONTBOUNDINGBOX 8 16 0 -5

STARTPROPERTIES 36
FOUNDRY "FontForge"
FAMILY_NAME "Raize"
WEIGHT_NAME "Regular"
SLANT "R"
SETWIDTH_NAME "Normal"
ADD_STYLE_NAME ""
PIXEL_SIZE 14
POINT_SIZE 130
RESOLUTION_X 75
RESOLUTION_Y 75
SPACING "M"
AVERAGE_WIDTH 80
CHARSET_REGISTRY "ISO8859"
CHARSET_ENCODING "1"
FONTNAME_REGISTRY ""
CHARSET_COLLECTIONS "ISOLatin1Encoding"
FONT_NAME "RaizeNormal"
FACE_NAME "Raize"
FONT_VERSION "001.000"
UNDERLINE_POSITION 4294967295
UNDERLINE_THICKNESS 1
X_HEIGHT 5
CAP_HEIGHT 8
RAW_ASCENT 800
RAW_DESCENT 200
NORM_SPACE 8
RELATIVE_WEIGHT 40
RELATIVE_SETWIDTH 50
FIGURE_WIDTH 8
AVG_LOWERCASE_WIDTH 80
AVG_UPPERCASE_WIDTH 80
WEIGHT 10
QUAD_WIDTH 8
DEFAULT_CHAR 0
FONT_DESCENT 3
FONT_ASCENT 11
ENDPROPERTIES

CHARS 192

STARTCHAR space
ENCODING 32
SWIDTH 571 0
DWIDTH 8 0
BBX 1 1 7 -5
BITMAP
00
ENDCHAR

STARTCHAR exclam
ENCODING 33
SWIDTH 571 0
DWIDTH 8 0
BBX 2 9 3 0
BITMAP
C0
C0
C0
C0
C0
C0
00
C0
C0
ENDCHAR

STARTCHAR quotedbl
ENCODING 34
SWIDTH 571 0
DWIDTH 8 0
BBX 3 3 2 6
BITMAP
A0
A0
A0
ENDCHAR

STARTCHAR numbersign
ENCODING 35
SWIDTH 571 0
DWIDTH 8 0
BBX 7 9 0 0
BITMAP
14
14
7E
28
28
28
FC
50
50
ENDCHAR

STARTCHAR dollar
ENCODING 36
SWIDTH 571 0
DWIDTH 8 0
BBX 5 9 1 0
BITMAP
20
70
A8
A0
70
28
A8
70
20
ENDCHAR

STARTCHAR percent
ENCODING 37
SWIDTH 571 0
DWIDTH 8 0
BBX 6 6 1 1
BITMAP
C4
C8
10
20
4C
8C
ENDCHAR

STARTCHAR ampersand
ENCODING 38
SWIDTH 571 0
DWIDTH 8 0
BBX 6 9 1 0
BITMAP
60
90
90
60
60
94
88
88
74
ENDCHAR

STARTCHAR quotesingle
ENCODING 39
SWIDTH 571 0
DWIDTH 8 0
BBX 2 4 3 5
BITMAP
C0
C0
40
80
ENDCHAR

STARTCHAR parenleft
ENCODING 40
SWIDTH 571 0
DWIDTH 8 0
BBX 3 11 2 -2
BITMAP
20
40
40
80
80
80
80
80
40
40
20
ENDCHAR

STARTCHAR parenright
ENCODING 41
SWIDTH 571 0
DWIDTH 8 0
BBX 3 11 3 -2
BITMAP
80
40
40
20
20
20
20
20
40
40
80
ENDCHAR

STARTCHAR asterisk
ENCODING 42
SWIDTH 571 0
DWIDTH 8 0
BBX 7 5 0 1
BITMAP
6C
38
FE
38
6C
ENDCHAR

STARTCHAR plus
ENCODING 43
SWIDTH 571 0
DWIDTH 8 0
BBX 5 5 1 1
BITMAP
20
20
F8
20
20
ENDCHAR

STARTCHAR comma
ENCODING 44
SWIDTH 571 0
DWIDTH 8 0
BBX 2 4 3 -1
BITMAP
C0
C0
40
80
ENDCHAR

STARTCHAR hyphen
ENCODING 45
SWIDTH 571 0
DWIDTH 8 0
BBX 5 1 1 3
BITMAP
F8
ENDCHAR

STARTCHAR period
ENCODING 46
SWIDTH 571 0
DWIDTH 8 0
BBX 2 2 3 0
BITMAP
C0
C0
ENDCHAR

STARTCHAR slash
ENCODING 47
SWIDTH 571 0
DWIDTH 8 0
BBX 5 10 1 -1
BITMAP
08
08
10
10
20
20
40
40
80
80
ENDCHAR

STARTCHAR zero
ENCODING 48
SWIDTH 571 0
DWIDTH 8 0
BBX 6 9 1 0
BITMAP
78
84
8C
94
A4
C4
84
84
78
ENDCHAR

STARTCHAR one
ENCODING 49
SWIDTH 571 0
DWIDTH 8 0
BBX 5 9 1 0
BITMAP
20
E0
20
20
20
20
20
20
F8
ENDCHAR

STARTCHAR two
ENCODING 50
SWIDTH 571 0
DWIDTH 8 0
BBX 6 9 1 0
BITMAP
78
84
04
08
10
20
40
80
FC
ENDCHAR

STARTCHAR three
ENCODING 51
SWIDTH 571 0
DWIDTH 8 0
BBX 6 9 1 0
BITMAP
78
84
04
04
38
04
04
84
78
ENDCHAR

STARTCHAR four
ENCODING 52
SWIDTH 571 0
DWIDTH 8 0
BBX 6 9 1 0
BITMAP
0C
14
24
44
84
84
FC
04
04
ENDCHAR

STARTCHAR five
ENCODING 53
SWIDTH 571 0
DWIDTH 8 0
BBX 6 9 1 0
BITMAP
FC
80
80
80
F8
04
04
84
78
ENDCHAR

STARTCHAR six
ENCODING 54
SWIDTH 571 0
DWIDTH 8 0
BBX 6 9 1 0
BITMAP
38
40
80
80
F8
84
84
84
78
ENDCHAR

STARTCHAR seven
ENCODING 55
SWIDTH 571 0
DWIDTH 8 0
BBX 6 9 1 0
BITMAP
FC
84
04
08
08
10
10
20
20
ENDCHAR

STARTCHAR eight
ENCODING 56
SWIDTH 571 0
DWIDTH 8 0
BBX 6 9 1 0
BITMAP
78
84
84
84
78
84
84
84
78
ENDCHAR

STARTCHAR nine
ENCODING 57
SWIDTH 571 0
DWIDTH 8 0
BBX 6 9 1 0
BITMAP
78
84
84
84
7C
04
04
08
70
ENDCHAR

STARTCHAR colon
ENCODING 58
SWIDTH 571 0
DWIDTH 8 0
BBX 2 7 3 0
BITMAP
C0
C0
00
00
00
C0
C0
ENDCHAR

STARTCHAR semicolon
ENCODING 59
SWIDTH 571 0
DWIDTH 8 0
BBX 2 9 3 -2
BITMAP
C0
C0
00
00
00
C0
C0
40
80
ENDCHAR

STARTCHAR less
ENCODING 60
SWIDTH 571 0
DWIDTH 8 0
BBX 5 9 2 0
BITMAP
08
10
20
40
80
40
20
10
08
ENDCHAR

STARTCHAR equal
ENCODING 61
SWIDTH 571 0
DWIDTH 8 0
BBX 6 3 1 2
BITMAP
FC
00
FC
ENDCHAR

STARTCHAR greater
ENCODING 62
SWIDTH 571 0
DWIDTH 8 0
BBX 5 9 1 0
BITMAP
80
40
20
10
08
10
20
40
80
ENDCHAR

STARTCHAR question
ENCODING 63
SWIDTH 571 0
DWIDTH 8 0
BBX 5 9 1 0
BITMAP
70
88
88
10
20
20
00
20
20
ENDCHAR

STARTCHAR at
ENCODING 64
SWIDTH 571 0
DWIDTH 8 0
BBX 7 9 0 0
BITMAP
3C
42
9A
AA
AA
AA
9C
40
38
ENDCHAR

STARTCHAR A
ENCODING 65
SWIDTH 571 0
DWIDTH 8 0
BBX 7 9 0 0
BITMAP
38
44
82
82
82
FE
82
82
82
ENDCHAR

STARTCHAR B
ENCODING 66
SWIDTH 571 0
DWIDTH 8 0
BBX 7 9 0 0
BITMAP
FC
82
82
82
FC
82
82
82
FC
ENDCHAR

STARTCHAR C
ENCODING 67
SWIDTH 571 0
DWIDTH 8 0
BBX 7 9 0 0
BITMAP
7C
82
82
80
80
80
82
82
7C
ENDCHAR

STARTCHAR D
ENCODING 68
SWIDTH 571 0
DWIDTH 8 0
BBX 7 9 0 0
BITMAP
F8
84
82
82
82
82
82
84
F8
ENDCHAR

STARTCHAR E
ENCODING 69
SWIDTH 571 0
DWIDTH 8 0
BBX 7 9 0 0
BITMAP
FE
80
80
80
FC
80
80
80
FE
ENDCHAR

STARTCHAR F
ENCODING 70
SWIDTH 571 0
DWIDTH 8 0
BBX 7 9 0 0
BITMAP
FE
80
80
80
FC
80
80
80
80
ENDCHAR

STARTCHAR G
ENCODING 71
SWIDTH 571 0
DWIDTH 8 0
BBX 7 9 0 0
BITMAP
7C
82
82
80
80
8E
82
82
7E
ENDCHAR

STARTCHAR H
ENCODING 72
SWIDTH 571 0
DWIDTH 8 0
BBX 7 9 0 0
BITMAP
82
82
82
82
FE
82
82
82
82
ENDCHAR

STARTCHAR I
ENCODING 73
SWIDTH 571 0
DWIDTH 8 0
BBX 7 9 0 0
BITMAP
FE
10
10
10
10
10
10
10
FE
ENDCHAR

STARTCHAR J
ENCODING 74
SWIDTH 571 0
DWIDTH 8 0
BBX 7 9 0 0
BITMAP
02
02
02
02
02
82
82
82
7C
ENDCHAR

STARTCHAR K
ENCODING 75
SWIDTH 571 0
DWIDTH 8 0
BBX 7 9 0 0
BITMAP
82
84
88
90
E0
90
88
84
82
ENDCHAR

STARTCHAR L
ENCODING 76
SWIDTH 571 0
DWIDTH 8 0
BBX 7 9 0 0
BITMAP
80
80
80
80
80
80
80
80
FE
ENDCHAR

STARTCHAR M
ENCODING 77
SWIDTH 571 0
DWIDTH 8 0
BBX 7 9 0 0
BITMAP
82
C6
AA
92
82
82
82
82
82
ENDCHAR

STARTCHAR N
ENCODING 78
SWIDTH 571 0
DWIDTH 8 0
BBX 7 9 0 0
BITMAP
82
C2
A2
92
8A
86
82
82
82
ENDCHAR

STARTCHAR O
ENCODING 79
SWIDTH 571 0
DWIDTH 8 0
BBX 7 9 0 0
BITMAP
7C
82
82
82
82
82
82
82
7C
ENDCHAR

STARTCHAR P
ENCODING 80
SWIDTH 571 0
DWIDTH 8 0
BBX 7 9 0 0
BITMAP
FC
82
82
82
FC
80
80
80
80
ENDCHAR

STARTCHAR Q
ENCODING 81
SWIDTH 571 0
DWIDTH 8 0
BBX 7 10 0 -1
BITMAP
7C
82
82
82
82
82
82
92
7C
06
ENDCHAR

STARTCHAR R
ENCODING 82
SWIDTH 571 0
DWIDTH 8 0
BBX 7 9 0 0
BITMAP
FC
82
82
82
FC
84
82
82
82
ENDCHAR

STARTCHAR S
ENCODING 83
SWIDTH 571 0
DWIDTH 8 0
BBX 7 9 0 0
BITMAP
7C
82
80
80
7C
02
02
82
7C
ENDCHAR

STARTCHAR T
ENCODING 84
SWIDTH 571 0
DWIDTH 8 0
BBX 7 9 0 0
BITMAP
FE
10
10
10
10
10
10
10
10
ENDCHAR

STARTCHAR U
ENCODING 85
SWIDTH 571 0
DWIDTH 8 0
BBX 7 9 0 0
BITMAP
82
82
82
82
82
82
82
82
7C
ENDCHAR

STARTCHAR V
ENCODING 86
SWIDTH 571 0
DWIDTH 8 0
BBX 7 9 0 0
BITMAP
82
82
82
44
44
28
28
10
10
ENDCHAR

STARTCHAR W
ENCODING 87
SWIDTH 571 0
DWIDTH 8 0
BBX 7 9 0 0
BITMAP
82
82
82
82
92
92
92
AA
44
ENDCHAR

STARTCHAR X
ENCODING 88
SWIDTH 571 0
DWIDTH 8 0
BBX 7 9 0 0
BITMAP
82
82
44
28
10
28
44
82
82
ENDCHAR

STARTCHAR Y
ENCODING 89
SWIDTH 571 0
DWIDTH 8 0
BBX 7 9 0 0
BITMAP
82
82
82
44
28
10
10
10
10
ENDCHAR

STARTCHAR Z
ENCODING 90
SWIDTH 571 0
DWIDTH 8 0
BBX 7 9 0 0
BITMAP
FE
02
04
08
10
20
40
80
FE
ENDCHAR

STARTCHAR bracketleft
ENCODING 91
SWIDTH 571 0
DWIDTH 8 0
BBX 3 11 3 -2
BITMAP
E0
80
80
80
80
80
80
80
80
80
E0
ENDCHAR

STARTCHAR backslash
ENCODING 92
SWIDTH 571 0
DWIDTH 8 0
BBX 5 10 1 -1
BITMAP
80
80
40
40
20
20
10
10
08
08
ENDCHAR

STARTCHAR bracketright
ENCODING 93
SWIDTH 571 0
DWIDTH 8 0
BBX 3 11 2 -2
BITMAP
E0
20
20
20
20
20
20
20
20
20
E0
ENDCHAR

STARTCHAR asciicircum
ENCODING 94
SWIDTH 571 0
DWIDTH 8 0
BBX 7 4 0 6
BITMAP
10
28
44
82
ENDCHAR

STARTCHAR underscore
ENCODING 95
SWIDTH 571 0
DWIDTH 8 0
BBX 8 1 0 -2
BITMAP
FF
ENDCHAR

STARTCHAR grave
ENCODING 96
SWIDTH 571 0
DWIDTH 8 0
BBX 2 4 3 5
BITMAP
C0
C0
80
40
ENDCHAR

STARTCHAR a
ENCODING 97
SWIDTH 571 0
DWIDTH 8 0
BBX 7 6 0 0
BITMAP
7C
02
7E
82
82
7E
ENDCHAR

STARTCHAR b
ENCODING 98
SWIDTH 571 0
DWIDTH 8 0
BBX 7 9 0 0
BITMAP
80
80
80
BC
C2
82
82
82
FC
ENDCHAR

STARTCHAR c
ENCODING 99
SWIDTH 571 0
DWIDTH 8 0
BBX 7 6 0 0
BITMAP
7C
82
80
80
82
7C
ENDCHAR

STARTCHAR d
ENCODING 100
SWIDTH 571 0
DWIDTH 8 0
BBX 7 9 0 0
BITMAP
02
02
02
7E
82
82
82
86
7A
ENDCHAR

STARTCHAR e
ENCODING 101
SWIDTH 571 0
DWIDTH 8 0
BBX 7 6 0 0
BITMAP
7C
82
FE
80
82
7C
ENDCHAR

STARTCHAR f
ENCODING 102
SWIDTH 571 0
DWIDTH 8 0
BBX 7 9 0 0
BITMAP
1C
22
20
20
FC
20
20
20
20
ENDCHAR

STARTCHAR g
ENCODING 103
SWIDTH 571 0
DWIDTH 8 0
BBX 7 9 0 -3
BITMAP
7E
82
82
82
86
7A
02
82
7C
ENDCHAR

STARTCHAR h
ENCODING 104
SWIDTH 571 0
DWIDTH 8 0
BBX 7 9 0 0
BITMAP
80
80
80
BC
C2
82
82
82
82
ENDCHAR

STARTCHAR i
ENCODING 105
SWIDTH 571 0
DWIDTH 8 0
BBX 5 9 1 0
BITMAP
20
20
00
60
20
20
20
20
F8
ENDCHAR

STARTCHAR j
ENCODING 106
SWIDTH 571 0
DWIDTH 8 0
BBX 7 12 0 -3
BITMAP
02
02
00
02
02
02
02
02
02
82
82
7C
ENDCHAR

STARTCHAR k
ENCODING 107
SWIDTH 571 0
DWIDTH 8 0
BBX 6 9 1 0
BITMAP
80
80
80
88
90
E0
90
88
84
ENDCHAR

STARTCHAR l
ENCODING 108
SWIDTH 571 0
DWIDTH 8 0
BBX 5 9 1 0
BITMAP
60
20
20
20
20
20
20
20
F8
ENDCHAR

STARTCHAR m
ENCODING 109
SWIDTH 571 0
DWIDTH 8 0
BBX 7 6 0 0
BITMAP
FC
92
92
92
92
92
ENDCHAR

STARTCHAR n
ENCODING 110
SWIDTH 571 0
DWIDTH 8 0
BBX 7 6 0 0
BITMAP
BC
C2
82
82
82
82
ENDCHAR

STARTCHAR o
ENCODING 111
SWIDTH 571 0
DWIDTH 8 0
BBX 7 6 0 0
BITMAP
7C
82
82
82
82
7C
ENDCHAR

STARTCHAR p
ENCODING 112
SWIDTH 571 0
DWIDTH 8 0
BBX 7 9 0 -3
BITMAP
BC
C2
82
82
82
FC
80
80
80
ENDCHAR

STARTCHAR q
ENCODING 113
SWIDTH 571 0
DWIDTH 8 0
BBX 7 9 0 -3
BITMAP
7E
82
82
82
86
7A
02
02
02
ENDCHAR

STARTCHAR r
ENCODING 114
SWIDTH 571 0
DWIDTH 8 0
BBX 7 6 0 0
BITMAP
BC
C2
80
80
80
80
ENDCHAR

STARTCHAR s
ENCODING 115
SWIDTH 571 0
DWIDTH 8 0
BBX 7 6 0 0
BITMAP
7C
82
70
1C
82
7C
ENDCHAR

STARTCHAR t
ENCODING 116
SWIDTH 571 0
DWIDTH 8 0
BBX 7 8 0 0
BITMAP
20
20
FC
20
20
20
22
1C
ENDCHAR

STARTCHAR u
ENCODING 117
SWIDTH 571 0
DWIDTH 8 0
BBX 7 6 0 0
BITMAP
82
82
82
82
86
7A
ENDCHAR

STARTCHAR v
ENCODING 118
SWIDTH 571 0
DWIDTH 8 0
BBX 7 6 0 0
BITMAP
82
82
82
44
28
10
ENDCHAR

STARTCHAR w
ENCODING 119
SWIDTH 571 0
DWIDTH 8 0
BBX 7 6 0 0
BITMAP
82
82
92
92
AA
44
ENDCHAR

STARTCHAR x
ENCODING 120
SWIDTH 571 0
DWIDTH 8 0
BBX 6 6 1 0
BITMAP
84
48
30
30
48
84
ENDCHAR

STARTCHAR y
ENCODING 121
SWIDTH 571 0
DWIDTH 8 0
BBX 7 9 0 -3
BITMAP
82
82
44
44
28
28
10
10
60
ENDCHAR

STARTCHAR z
ENCODING 122
SWIDTH 571 0
DWIDTH 8 0
BBX 6 6 1 0
BITMAP
FC
08
10
20
40
FC
ENDCHAR

STARTCHAR braceleft
ENCODING 123
SWIDTH 571 0
DWIDTH 8 0
BBX 5 11 1 -2
BITMAP
18
20
20
20
20
C0
20
20
20
20
18
ENDCHAR

STARTCHAR bar
ENCODING 124
SWIDTH 571 0
DWIDTH 8 0
BBX 1 12 3 -2
BITMAP
80
80
80
80
80
80
80
80
80
80
80
80
ENDCHAR

STARTCHAR braceright
ENCODING 125
SWIDTH 571 0
DWIDTH 8 0
BBX 5 11 2 -2
BITMAP
C0
20
20
20
20
18
20
20
20
20
C0
ENDCHAR

STARTCHAR asciitilde
ENCODING 126
SWIDTH 571 0
DWIDTH 8 0
BBX 6 2 1 6
BITMAP
64
98
ENDCHAR

STARTCHAR uni007F
ENCODING 127
SWIDTH 571 0
DWIDTH 8 0
BBX 2 9 3 0
BITMAP
C0
C0
C0
C0
C0
C0
C0
C0
C0
ENDCHAR

STARTCHAR uni00A0
ENCODING 160
SWIDTH 571 0
DWIDTH 8 0
BBX 1 1 7 -5
BITMAP
00
ENDCHAR

STARTCHAR exclamdown
ENCODING 161
SWIDTH 571 0
DWIDTH 8 0
BBX 1 9 4 -1
BITMAP
80
00
80
80
80
80
80
80
80
ENDCHAR

STARTCHAR cent
ENCODING 162
SWIDTH 571 0
DWIDTH 8 0
BBX 7 10 0 -1
BITMAP
10
10
7C
92
90
90
92
7C
10
10
ENDCHAR

STARTCHAR sterling
ENCODING 163
SWIDTH 571 0
DWIDTH 8 0
BBX 7 9 0 0
BITMAP
1C
22
22
20
78
20
20
40
FE
ENDCHAR

STARTCHAR currency
ENCODING 164
SWIDTH 571 0
DWIDTH 8 0
BBX 7 7 0 0
BITMAP
82
7C
44
44
44
7C
82
ENDCHAR

STARTCHAR yen
ENCODING 165
SWIDTH 571 0
DWIDTH 8 0
BBX 7 9 0 0
BITMAP
82
82
44
28
10
7C
10
10
10
ENDCHAR

STARTCHAR brokenbar
ENCODING 166
SWIDTH 571 0
DWIDTH 8 0
BBX 1 11 3 -2
BITMAP
80
80
80
80
80
00
80
80
80
80
80
ENDCHAR

STARTCHAR section
ENCODING 167
SWIDTH 571 0
DWIDTH 8 0
BBX 5 10 1 -1
BITMAP
78
80
80
70
88
88
70
08
08
F0
ENDCHAR

STARTCHAR dieresis
ENCODING 168
SWIDTH 571 0
DWIDTH 8 0
BBX 5 1 1 10
BITMAP
88
ENDCHAR

STARTCHAR copyright
ENCODING 169
SWIDTH 571 0
DWIDTH 8 0
BBX 7 8 0 0
BITMAP
38
44
9A
A2
A2
9A
44
38
ENDCHAR

STARTCHAR ordfeminine
ENCODING 170
SWIDTH 571 0
DWIDTH 8 0
BBX 4 7 2 2
BITMAP
60
10
70
90
70
00
F0
ENDCHAR

STARTCHAR guillemotleft
ENCODING 171
SWIDTH 571 0
DWIDTH 8 0
BBX 5 5 1 0
BITMAP
28
50
A0
50
28
ENDCHAR

STARTCHAR logicalnot
ENCODING 172
SWIDTH 571 0
DWIDTH 8 0
BBX 6 2 1 3
BITMAP
FC
04
ENDCHAR

STARTCHAR uni00AD
ENCODING 173
SWIDTH 571 0
DWIDTH 8 0
BBX 4 1 2 3
BITMAP
F0
ENDCHAR

STARTCHAR registered
ENCODING 174
SWIDTH 571 0
DWIDTH 8 0
BBX 7 8 0 0
BITMAP
38
44
B2
AA
B2
AA
44
38
ENDCHAR

STARTCHAR macron
ENCODING 175
SWIDTH 571 0
DWIDTH 8 0
BBX 7 1 0 9
BITMAP
FE
ENDCHAR

STARTCHAR degree
ENCODING 176
SWIDTH 571 0
DWIDTH 8 0
BBX 4 3 2 6
BITMAP
60
90
60
ENDCHAR

STARTCHAR plusminus
ENCODING 177
SWIDTH 571 0
DWIDTH 8 0
BBX 5 7 1 1
BITMAP
20
20
F8
20
20
00
F8
ENDCHAR

STARTCHAR uni00B2
ENCODING 178
SWIDTH 571 0
DWIDTH 8 0
BBX 3 5 2 4
BITMAP
C0
20
40
80
E0
ENDCHAR

STARTCHAR uni00B3
ENCODING 179
SWIDTH 571 0
DWIDTH 8 0
BBX 3 5 2 4
BITMAP
C0
20
40
20
C0
ENDCHAR

STARTCHAR acute
ENCODING 180
SWIDTH 571 0
DWIDTH 8 0
BBX 2 2 3 7
BITMAP
40
80
ENDCHAR

STARTCHAR uni00B5
ENCODING 181
SWIDTH 571 0
DWIDTH 8 0
BBX 6 8 1 -2
BITMAP
88
88
88
88
88
F4
80
80
ENDCHAR

STARTCHAR paragraph
ENCODING 182
SWIDTH 571 0
DWIDTH 8 0
BBX 5 9 1 0
BITMAP
78
E8
E8
E8
68
28
28
28
28
ENDCHAR

STARTCHAR periodcentered
ENCODING 183
SWIDTH 571 0
DWIDTH 8 0
BBX 2 2 3 3
BITMAP
C0
C0
ENDCHAR

STARTCHAR cedilla
ENCODING 184
SWIDTH 571 0
DWIDTH 8 0
BBX 3 3 3 -2
BITMAP
40
20
C0
ENDCHAR

STARTCHAR uni00B9
ENCODING 185
SWIDTH 571 0
DWIDTH 8 0
BBX 3 5 2 4
BITMAP
40
C0
40
40
E0
ENDCHAR

STARTCHAR ordmasculine
ENCODING 186
SWIDTH 571 0
DWIDTH 8 0
BBX 4 7 2 2
BITMAP
60
90
90
90
60
00
F0
ENDCHAR

STARTCHAR guillemotright
ENCODING 187
SWIDTH 571 0
DWIDTH 8 0
BBX 5 5 2 0
BITMAP
A0
50
28
50
A0
ENDCHAR

STARTCHAR onequarter
ENCODING 188
SWIDTH 571 0
DWIDTH 8 0
BBX 7 9 0 0
BITMAP
40
C2
44
48
52
26
4A
8E
02
ENDCHAR

STARTCHAR onehalf
ENCODING 189
SWIDTH 571 0
DWIDTH 8 0
BBX 7 9 0 0
BITMAP
40
C2
44
48
54
22
44
88
0E
ENDCHAR

STARTCHAR threequarters
ENCODING 190
SWIDTH 571 0
DWIDTH 8 0
BBX 7 9 0 0
BITMAP
C0
22
44
28
D2
26
4A
8E
02
ENDCHAR

STARTCHAR questiondown
ENCODING 191
SWIDTH 571 0
DWIDTH 8 0
BBX 5 9 1 0
BITMAP
20
20
00
20
20
40
88
88
70
ENDCHAR

STARTCHAR Agrave
ENCODING 192
SWIDTH 571 0
DWIDTH 8 0
BBX 7 11 0 0
BITMAP
20
10
38
44
82
82
82
FE
82
82
82
ENDCHAR

STARTCHAR Aacute
ENCODING 193
SWIDTH 571 0
DWIDTH 8 0
BBX 7 11 0 0
BITMAP
08
10
38
44
82
82
82
FE
82
82
82
ENDCHAR

STARTCHAR Acircumflex
ENCODING 194
SWIDTH 571 0
DWIDTH 8 0
BBX 7 11 0 0
BITMAP
10
28
00
7C
82
82
82
FE
82
82
82
ENDCHAR

STARTCHAR Atilde
ENCODING 195
SWIDTH 571 0
DWIDTH 8 0
BBX 7 11 0 0
BITMAP
32
4C
38
44
82
82
82
FE
82
82
82
ENDCHAR

STARTCHAR Adieresis
ENCODING 196
SWIDTH 571 0
DWIDTH 8 0
BBX 7 11 0 0
BITMAP
44
00
38
44
82
82
82
FE
82
82
82
ENDCHAR

STARTCHAR Aring
ENCODING 197
SWIDTH 571 0
DWIDTH 8 0
BBX 7 11 0 0
BITMAP
10
28
10
7C
82
82
82
FE
82
82
82
ENDCHAR

STARTCHAR AE
ENCODING 198
SWIDTH 571 0
DWIDTH 8 0
BBX 7 9 0 0
BITMAP
3E
50
90
90
9C
F0
90
90
9E
ENDCHAR

STARTCHAR Ccedilla
ENCODING 199
SWIDTH 571 0
DWIDTH 8 0
BBX 7 11 0 -2
BITMAP
7C
82
82
80
80
80
82
82
7C
10
30
ENDCHAR

STARTCHAR Egrave
ENCODING 200
SWIDTH 571 0
DWIDTH 8 0
BBX 7 11 0 0
BITMAP
20
10
FE
80
80
80
FC
80
80
80
FE
ENDCHAR

STARTCHAR Eacute
ENCODING 201
SWIDTH 571 0
DWIDTH 8 0
BBX 7 11 0 0
BITMAP
08
10
FE
80
80
80
FC
80
80
80
FE
ENDCHAR

STARTCHAR Ecircumflex
ENCODING 202
SWIDTH 571 0
DWIDTH 8 0
BBX 7 11 0 0
BITMAP
10
28
FE
80
80
80
FC
80
80
80
FE
ENDCHAR

STARTCHAR Edieresis
ENCODING 203
SWIDTH 571 0
DWIDTH 8 0
BBX 7 11 0 0
BITMAP
44
00
FE
80
80
80
FC
80
80
80
FE
ENDCHAR

STARTCHAR Igrave
ENCODING 204
SWIDTH 571 0
DWIDTH 8 0
BBX 7 11 0 0
BITMAP
20
10
FE
10
10
10
10
10
10
10
FE
ENDCHAR

STARTCHAR Iacute
ENCODING 205
SWIDTH 571 0
DWIDTH 8 0
BBX 7 11 0 0
BITMAP
08
10
FE
10
10
10
10
10
10
10
FE
ENDCHAR

STARTCHAR Icircumflex
ENCODING 206
SWIDTH 571 0
DWIDTH 8 0
BBX 7 11 0 0
BITMAP
10
28
FE
10
10
10
10
10
10
10
FE
ENDCHAR

STARTCHAR Idieresis
ENCODING 207
SWIDTH 571 0
DWIDTH 8 0
BBX 7 11 0 0
BITMAP
44
00
FE
10
10
10
10
10
10
10
FE
ENDCHAR

STARTCHAR Eth
ENCODING 208
SWIDTH 571 0
DWIDTH 8 0
BBX 7 9 0 0
BITMAP
78
44
42
42
F2
42
42
44
78
ENDCHAR

STARTCHAR Ntilde
ENCODING 209
SWIDTH 571 0
DWIDTH 8 0
BBX 7 11 0 0
BITMAP
32
4C
82
82
C2
A2
92
8A
86
82
82
ENDCHAR

STARTCHAR Ograve
ENCODING 210
SWIDTH 571 0
DWIDTH 8 0
BBX 7 11 0 0
BITMAP
20
10
7C
82
82
80
80
80
82
82
7C
ENDCHAR

STARTCHAR Oacute
ENCODING 211
SWIDTH 571 0
DWIDTH 8 0
BBX 7 11 0 0
BITMAP
08
10
7C
82
82
80
80
80
82
82
7C
ENDCHAR

STARTCHAR Ocircumflex
ENCODING 212
SWIDTH 571 0
DWIDTH 8 0
BBX 7 11 0 0
BITMAP
10
28
7C
82
82
80
80
80
82
82
7C
ENDCHAR

STARTCHAR Otilde
ENCODING 213
SWIDTH 571 0
DWIDTH 8 0
BBX 7 11 0 0
BITMAP
32
4C
7C
82
82
80
80
80
82
82
7C
ENDCHAR

STARTCHAR Odieresis
ENCODING 214
SWIDTH 571 0
DWIDTH 8 0
BBX 7 11 0 0
BITMAP
44
00
7C
82
82
80
80
80
82
82
7C
ENDCHAR

STARTCHAR multiply
ENCODING 215
SWIDTH 571 0
DWIDTH 8 0
BBX 5 5 1 1
BITMAP
88
50
20
50
88
ENDCHAR

STARTCHAR Oslash
ENCODING 216
SWIDTH 571 0
DWIDTH 8 0
BBX 7 9 0 0
BITMAP
7C
82
86
8A
92
A2
C2
82
7C
ENDCHAR

STARTCHAR Ugrave
ENCODING 217
SWIDTH 571 0
DWIDTH 8 0
BBX 7 11 0 0
BITMAP
20
10
82
82
82
82
82
82
82
82
7C
ENDCHAR

STARTCHAR Uacute
ENCODING 218
SWIDTH 571 0
DWIDTH 8 0
BBX 7 11 0 0
BITMAP
08
10
82
82
82
82
82
82
82
82
7C
ENDCHAR

STARTCHAR Ucircumflex
ENCODING 219
SWIDTH 571 0
DWIDTH 8 0
BBX 7 11 0 0
BITMAP
10
28
82
82
82
82
82
82
82
82
7C
ENDCHAR

STARTCHAR Udieresis
ENCODING 220
SWIDTH 571 0
DWIDTH 8 0
BBX 7 11 0 0
BITMAP
44
00
82
82
82
82
82
82
82
82
7C
ENDCHAR

STARTCHAR Yacute
ENCODING 221
SWIDTH 571 0
DWIDTH 8 0
BBX 7 11 0 0
BITMAP
08
10
82
82
82
44
28
10
10
10
10
ENDCHAR

STARTCHAR Thorn
ENCODING 222
SWIDTH 571 0
DWIDTH 8 0
BBX 6 9 1 0
BITMAP
80
80
F8
84
84
84
F8
80
80
ENDCHAR

STARTCHAR germandbls
ENCODING 223
SWIDTH 571 0
DWIDTH 8 0
BBX 6 9 1 0
BITMAP
70
88
88
88
B8
84
84
84
B8
ENDCHAR

STARTCHAR agrave
ENCODING 224
SWIDTH 571 0
DWIDTH 8 0
BBX 7 9 0 0
BITMAP
20
10
00
7C
02
7E
82
82
7E
ENDCHAR

STARTCHAR aacute
ENCODING 225
SWIDTH 571 0
DWIDTH 8 0
BBX 7 9 0 0
BITMAP
08
10
00
7C
02
7E
82
82
7E
ENDCHAR

STARTCHAR acircumflex
ENCODING 226
SWIDTH 571 0
DWIDTH 8 0
BBX 7 9 0 0
BITMAP
10
28
00
7C
02
7E
82
82
7E
ENDCHAR

STARTCHAR atilde
ENCODING 227
SWIDTH 571 0
DWIDTH 8 0
BBX 7 9 0 0
BITMAP
32
4C
00
7C
02
7E
82
82
7E
ENDCHAR

STARTCHAR adieresis
ENCODING 228
SWIDTH 571 0
DWIDTH 8 0
BBX 7 9 0 0
BITMAP
44
00
00
7C
02
7E
82
82
7E
ENDCHAR

STARTCHAR aring
ENCODING 229
SWIDTH 571 0
DWIDTH 8 0
BBX 7 10 0 0
BITMAP
10
28
10
00
7C
02
7E
82
82
7E
ENDCHAR

STARTCHAR ae
ENCODING 230
SWIDTH 571 0
DWIDTH 8 0
BBX 7 6 0 0
BITMAP
6C
12
7E
90
92
7C
ENDCHAR

STARTCHAR ccedilla
ENCODING 231
SWIDTH 571 0
DWIDTH 8 0
BBX 7 8 0 -2
BITMAP
7C
82
80
80
82
7C
10
30
ENDCHAR

STARTCHAR egrave
ENCODING 232
SWIDTH 571 0
DWIDTH 8 0
BBX 7 9 0 0
BITMAP
20
10
00
7C
82
FE
80
82
7C
ENDCHAR

STARTCHAR eacute
ENCODING 233
SWIDTH 571 0
DWIDTH 8 0
BBX 7 9 0 0
BITMAP
08
10
00
7C
82
FE
80
82
7C
ENDCHAR

STARTCHAR ecircumflex
ENCODING 234
SWIDTH 571 0
DWIDTH 8 0
BBX 7 9 0 0
BITMAP
10
28
00
7C
82
FE
80
82
7C
ENDCHAR

STARTCHAR edieresis
ENCODING 235
SWIDTH 571 0
DWIDTH 8 0
BBX 7 9 0 0
BITMAP
44
00
00
7C
82
FE
80
82
7C
ENDCHAR

STARTCHAR igrave
ENCODING 236
SWIDTH 571 0
DWIDTH 8 0
BBX 5 9 1 0
BITMAP
40
20
00
60
20
20
20
20
F8
ENDCHAR

STARTCHAR iacute
ENCODING 237
SWIDTH 571 0
DWIDTH 8 0
BBX 5 9 1 0
BITMAP
20
40
00
60
20
20
20
20
F8
ENDCHAR

STARTCHAR icircumflex
ENCODING 238
SWIDTH 571 0
DWIDTH 8 0
BBX 5 9 1 0
BITMAP
20
50
00
60
20
20
20
20
F8
ENDCHAR

STARTCHAR idieresis
ENCODING 239
SWIDTH 571 0
DWIDTH 8 0
BBX 5 9 1 0
BITMAP
88
00
00
60
20
20
20
20
F8
ENDCHAR

STARTCHAR eth
ENCODING 240
SWIDTH 571 0
DWIDTH 8 0
BBX 7 9 0 0
BITMAP
28
10
28
04
7C
82
82
82
7C
ENDCHAR

STARTCHAR ntilde
ENCODING 241
SWIDTH 571 0
DWIDTH 8 0
BBX 7 9 0 0
BITMAP
32
4C
00
BC
C2
82
82
82
82
ENDCHAR

STARTCHAR ograve
ENCODING 242
SWIDTH 571 0
DWIDTH 8 0
BBX 7 9 0 0
BITMAP
20
10
00
7C
82
82
82
82
7C
ENDCHAR

STARTCHAR oacute
ENCODING 243
SWIDTH 571 0
DWIDTH 8 0
BBX 7 9 0 0
BITMAP
08
10
00
7C
82
82
82
82
7C
ENDCHAR

STARTCHAR ocircumflex
ENCODING 244
SWIDTH 571 0
DWIDTH 8 0
BBX 7 9 0 0
BITMAP
10
28
00
7C
82
82
82
82
7C
ENDCHAR

STARTCHAR otilde
ENCODING 245
SWIDTH 571 0
DWIDTH 8 0
BBX 7 9 0 0
BITMAP
32
4C
00
7C
82
82
82
82
7C
ENDCHAR

STARTCHAR odieresis
ENCODING 246
SWIDTH 571 0
DWIDTH 8 0
BBX 7 9 0 0
BITMAP
44
00
00
7C
82
82
82
82
7C
ENDCHAR

STARTCHAR divide
ENCODING 247
SWIDTH 571 0
DWIDTH 8 0
BBX 5 5 1 1
BITMAP
20
00
F8
00
20
ENDCHAR

STARTCHAR oslash
ENCODING 248
SWIDTH 571 0
DWIDTH 8 0
BBX 7 8 0 -1
BITMAP
04
7C
8A
92
92
A2
7C
40
ENDCHAR

STARTCHAR ugrave
ENCODING 249
SWIDTH 571 0
DWIDTH 8 0
BBX 7 9 0 0
BITMAP
20
10
00
82
82
82
82
86
7A
ENDCHAR

STARTCHAR uacute
ENCODING 250
SWIDTH 571 0
DWIDTH 8 0
BBX 7 9 0 0
BITMAP
08
10
00
82
82
82
82
86
7A
ENDCHAR

STARTCHAR ucircumflex
ENCODING 251
SWIDTH 571 0
DWIDTH 8 0
BBX 7 9 0 0
BITMAP
10
28
00
82
82
82
82
86
7A
ENDCHAR

STARTCHAR udieresis
ENCODING 252
SWIDTH 571 0
DWIDTH 8 0
BBX 7 9 0 0
BITMAP
44
00
00
82
82
82
82
86
7A
ENDCHAR

STARTCHAR yacute
ENCODING 253
SWIDTH 571 0
DWIDTH 8 0
BBX 7 12 0 -3
BITMAP
08
10
00
82
82
44
44
28
28
10
10
60
ENDCHAR

STARTCHAR thorn
ENCODING 254
SWIDTH 571 0
DWIDTH 8 0
BBX 5 11 1 -2
BITMAP
80
80
80
F0
88
88
88
88
F0
80
80
ENDCHAR

STARTCHAR ydieresis
ENCODING 255
SWIDTH 571 0
DWIDTH 8 0
BBX 7 12 0 -3
BITMAP
44
00
00
82
82
44
44
28
28
10
10
60
ENDCHAR
ENDFONT
